<?xml version="1.0" ?><svg data-name="Layer 2" id="Layer_2" viewBox="0 0 2010 2010" xmlns="http://www.w3.org/2000/svg" xmlns:xlink="http://www.w3.org/1999/xlink"><defs><style>.cls-1{fill:url(#linear-gradient);}.cls-2{fill:url(#linear-gradient-2);}.cls-3{fill:url(#linear-gradient-3);}.cls-4{fill:url(#linear-gradient-4);}.cls-5{fill:url(#linear-gradient-5);}.cls-6{fill:url(#linear-gradient-6);}.cls-7{fill:url(#linear-gradient-7);}.cls-8{fill:url(#linear-gradient-8);}</style><linearGradient gradientUnits="userSpaceOnUse" id="linear-gradient" x1="98.52" x2="1536.08" y1="1337.48" y2="-51.35"><stop offset="0.06" stop-color="#ff6800"/><stop offset="1" stop-color="#fff100"/></linearGradient><linearGradient id="linear-gradient-2" x1="-30.25" x2="1407.31" xlink:href="#linear-gradient" y1="1204.2" y2="-184.63"/><linearGradient id="linear-gradient-3" x1="109.71" x2="1547.27" xlink:href="#linear-gradient" y1="1349.06" y2="-39.77"/><linearGradient id="linear-gradient-4" x1="747.27" x2="2184.83" xlink:href="#linear-gradient" y1="2009" y2="620.17"/><linearGradient id="linear-gradient-5" x1="420.58" x2="1858.14" xlink:href="#linear-gradient" y1="1670.84" y2="282.01"/><linearGradient id="linear-gradient-6" x1="411.29" x2="1590.58" xlink:href="#linear-gradient" y1="1712.86" y2="436.12"/><linearGradient gradientUnits="userSpaceOnUse" id="linear-gradient-7" x1="1523.55" x2="412.48" y1="759.26" y2="2109.1"><stop offset="0" stop-color="#69bbff"/><stop offset="1" stop-color="#1798ff"/></linearGradient><linearGradient id="linear-gradient-8" x1="1643.68" x2="532.62" xlink:href="#linear-gradient-7" y1="858.14" y2="2207.98"/></defs><path class="cls-1" d="M1005,622.54a75,75,0,0,1-75-75V375.92a75,75,0,0,1,150,0V547.54A75,75,0,0,1,1005,622.54Z"/><path class="cls-2" d="M598.75,790.81a74.79,74.79,0,0,1-53-22L424.37,647.49A75,75,0,0,1,530.43,541.43L651.79,662.78a75,75,0,0,1-53,128Z"/><path class="cls-3" d="M430.48,1197.06H258.86a75,75,0,0,1,0-150H430.48a75,75,0,0,1,0,150Z"/><path class="cls-4" d="M1751.14,1197.06H1579.52a75,75,0,0,1,0-150h171.62a75,75,0,0,1,0,150Z"/><path class="cls-5" d="M1411.25,790.81a75,75,0,0,1-53-128l121.36-121.35a75,75,0,0,1,106.06,106.06L1464.28,768.85A74.79,74.79,0,0,1,1411.25,790.81Z"/><path class="cls-6" d="M662.92,1212a75,75,0,0,1-75-75,417.08,417.08,0,1,1,834.16,0,75,75,0,0,1-75,75Z"/><path class="cls-7" d="M1457,1464.25H553a75,75,0,0,1,0-150H1457a75,75,0,0,1,0,150Z"/><path class="cls-8" d="M1286.68,1709.08H723.32a75,75,0,0,1,0-150h563.36a75,75,0,1,1,0,150Z"/></svg>