<?xml version="1.0" ?><svg viewBox="0 0 512 512" xmlns="http://www.w3.org/2000/svg" xmlns:xlink="http://www.w3.org/1999/xlink"><defs><style>.cls-1{fill:url(#linear-gradient);}.cls-2{fill:url(#radial-gradient);}.cls-3{fill:url(#linear-gradient-2);}.cls-4{fill:url(#radial-gradient-2);}.cls-5{fill:#414344;}.cls-6{fill:url(#radial-gradient-3);}.cls-7{fill:url(#linear-gradient-3);}.cls-8{fill:url(#radial-gradient-4);}.cls-9{fill:url(#linear-gradient-4);}.cls-10{fill:url(#linear-gradient-5);}.cls-11{fill:url(#linear-gradient-6);}</style><linearGradient gradientUnits="userSpaceOnUse" id="linear-gradient" x1="20.0091" x2="262.5808" y1="-23.7617" y2="131.8667"><stop offset="0.5028" stop-color="#444241"/><stop offset="0.5565" stop-color="#42403f"/><stop offset="1" stop-color="#353433"/></linearGradient><radialGradient cx="228.1275" cy="416.6853" gradientUnits="userSpaceOnUse" id="radial-gradient" r="119.8705"><stop offset="0" stop-color="#718fdb"/><stop offset="0.2012" stop-color="#7692df"/><stop offset="1" stop-color="#859aec"/></radialGradient><linearGradient gradientUnits="userSpaceOnUse" id="linear-gradient-2" x1="228.1275" x2="228.1275" y1="400.5471" y2="321.9196"><stop offset="0" stop-color="#ffd5b3"/><stop offset="0.7336" stop-color="#e29e86"/></linearGradient><radialGradient cx="105.9432" cy="116.1136" gradientUnits="userSpaceOnUse" id="radial-gradient-2" r="266.4739"><stop offset="0" stop-color="#ffd5b3"/><stop offset="0.5522" stop-color="#fed3b2"/><stop offset="0.7511" stop-color="#faccad"/><stop offset="0.8924" stop-color="#f3c1a4"/><stop offset="1" stop-color="#eab198"/></radialGradient><radialGradient cx="300.4552" cy="80.1351" gradientUnits="userSpaceOnUse" id="radial-gradient-3" r="84.703"><stop offset="0" stop-color="#6eb1ed"/><stop offset="0.5942" stop-color="#6cb0eb"/><stop offset="0.808" stop-color="#65abe6"/><stop offset="0.9601" stop-color="#5aa3dc"/><stop offset="1" stop-color="#55a0d8"/></radialGradient><linearGradient gradientUnits="userSpaceOnUse" id="linear-gradient-3" x1="344.2925" x2="414.7406" y1="372.0857" y2="372.0857"><stop offset="0" stop-color="#d7d7f7"/><stop offset="0.4136" stop-color="#d5d5f6"/><stop offset="0.6562" stop-color="#ccccf4"/><stop offset="0.8539" stop-color="#bebef1"/><stop offset="1" stop-color="#aeaeed"/></linearGradient><radialGradient cx="353.2215" cy="297.4868" gradientUnits="userSpaceOnUse" id="radial-gradient-4" r="141.9925"><stop offset="0" stop-color="#f98585"/><stop offset="0.5808" stop-color="#f88383"/><stop offset="0.79" stop-color="#f57c7c"/><stop offset="0.9386" stop-color="#f07171"/><stop offset="1" stop-color="#ed6969"/></radialGradient><linearGradient gradientUnits="userSpaceOnUse" id="linear-gradient-4" x1="375.6381" x2="375.6381" y1="316.9194" y2="306.9194"><stop offset="0" stop-color="#9191c1"/><stop offset="0.0146" stop-color="#9292c2"/><stop offset="0.243" stop-color="#a0a0c9"/><stop offset="0.5226" stop-color="#a9a9cd"/><stop offset="1" stop-color="#ababce"/></linearGradient><linearGradient id="linear-gradient-5" x1="375.6774" x2="375.6774" xlink:href="#linear-gradient-4" y1="343.6528" y2="333.6528"/><linearGradient id="linear-gradient-6" x1="375.7167" x2="375.7167" xlink:href="#linear-gradient-4" y1="370.3862" y2="360.3862"/></defs><title/><g id="Smooth-Virus"><g data-name="medical illness healthcare sickness pacient temperature" id="medical_illness_healthcare_sickness_pacient_temperature-4"><path class="cls-1" d="M339.401,89.354V63.451c0-17.37-15.3564-31.451-34.3-31.451H188.67c-39.9836,0-72.8636,27.8818-76.7813,63.5981a58.1766,58.1766,0,0,0-8.7763,41.5733l4.967,29.6554H348.1769l4.93-29.1553C356.1536,119.6586,350.5713,102.4754,339.401,89.354Z"/><path class="cls-2" d="M306.755,353.3705H149.5a78.6272,78.6272,0,0,0-78.6275,78.6276c0,17.3687,3.5052,25.504,31.451,31.451,0,0,94.0823,16.5509,125.804,16.5509s125.804-16.5509,125.804-16.5509c27.9458-5.947,31.451-14.0823,31.451-31.451A78.6272,78.6272,0,0,0,306.755,353.3705Z"/><path class="cls-3" d="M228.1276,400.5471a47.1765,47.1765,0,0,1-47.1766-47.1765V321.92h94.353v31.451A47.1764,47.1764,0,0,1,228.1276,400.5471Z"/><path class="cls-4" d="M336.9709,252.4372a7.93,7.93,0,0,1,6.51-6.5068,31.7307,31.7307,0,0,0,26.1763-30.9442V191.3979a31.7363,31.7363,0,0,0-26.3606-30.9763,8.0118,8.0118,0,0,1-6.4762-6.1779,63.1137,63.1137,0,0,0-61.5162-49.3361H180.951a63.1137,63.1137,0,0,0-61.5162,49.3361,8.0118,8.0118,0,0,1-6.4761,6.1779A31.7363,31.7363,0,0,0,86.598,191.3979v23.5883A31.7307,31.7307,0,0,0,112.7743,245.93a7.93,7.93,0,0,1,6.51,6.5068c5.5062,34.3591,27.0811,96.2157,108.8434,96.2157S331.4648,286.7963,336.9709,252.4372Z"/><path class="cls-5" d="M152.9189,199.2729a93.317,93.317,0,0,1,30.753-4.706c-7.4844-5.37-18.042-12.2568-26.3614-17.15-5.7047-3.3557-.6292-11.9723,5.07-8.6191,5.5781,3.2807,15.3652,9.4375,23.6738,15.2031,14.5859,10.1216,17.73,13.7011,16.0137,18.24-.6573,1.7393-2.6123,4.4917-8.3057,3.3911-18.5957-3.5986-37.2627,2.981-37.4492,3.0474C150.1045,210.9083,146.6869,201.527,152.9189,199.2729Zm39.9629,2.8335h0Z"/><path class="cls-5" d="M299.9355,208.6772c-.18-.0644-18.8466-6.6435-37.4423-3.0454-5.6944,1.1031-7.6485-1.6513-8.3057-3.3916-1.7158-4.5381,1.4268-8.1181,16.0127-18.24,8.3086-5.7651,18.0957-11.9219,23.6738-15.2026,5.6977-3.3527,10.7762,5.2628,5.07,8.6191-8.3193,4.8931-18.8769,11.78-26.3613,17.15a93.5439,93.5439,0,0,1,30.7529,4.706C309.5922,201.5352,306.1358,210.92,299.9355,208.6772Z"/><path class="cls-6" d="M339.5587,81.9105c-32.6028,30.2769-33.36,44.9838-33.5688,51.8791a33.5688,33.5688,0,0,0,67.1376,0C372.92,126.9118,372.1569,112.1831,339.5587,81.9105Z"/><path class="cls-7" d="M369.4209,386.25l-.2934-99.75c0-29.7813,45-29.7614,45,0l.0034,99.9008a49.5,49.5,0,1,1-44.71-.1506Z"/><path class="cls-8" d="M396.6279,411.1158V286.5c0-6.6113-10-6.62-10,0V411.1157a22.5,22.5,0,1,0,10,0Z"/><path class="cls-9" d="M377.1275,306.9194h-7.94l.0294,10h7.9105C383.749,316.9194,383.7355,306.9194,377.1275,306.9194Z"/><path class="cls-10" d="M377.1275,333.6528h-7.8613l.0294,10h7.8319C383.749,343.6528,383.7355,333.6528,377.1275,333.6528Z"/><path class="cls-11" d="M377.1275,360.3862h-7.7827l.0294,10h7.7533C383.749,370.3862,383.7355,360.3862,377.1275,360.3862Z"/></g></g></svg>